<svg width="221" height="97" viewBox="0 0 221 97" fill="none" xmlns="http://www.w3.org/2000/svg">
<path fill-rule="evenodd" clip-rule="evenodd" d="M60.5 0.499991C64.182 0.334691 67.848 0.501391 71.5 0.999991C72.624 1.24919 73.624 1.74919 74.5 2.49999C55.226 17.9223 48.726 37.589 55 61.5C43.4435 39.83 45.277 19.4969 60.5 0.499991Z" fill="#2376BC"/>
<path fill-rule="evenodd" clip-rule="evenodd" d="M59.5 45.5C58.527 43.052 58.194 40.385 58.5 37.5C60.975 22.8578 69.142 12.8578 83 7.5C86.66 8.2464 89.826 9.913 92.5 12.5C74.46 16.5399 63.46 27.54 59.5 45.5Z" fill="#2376BC"/>
<path fill-rule="evenodd" clip-rule="evenodd" d="M67.5 74.5C67.265 75.097 66.765 75.43 66 75.5C59.495 73.499 53.662 70.332 48.5 66C32.9481 50.625 28.2814 32.459 34.5 11.5C35.1171 9.3198 36.1171 7.3198 37.5 5.5C42.033 3.9333 46.533 2.2666 51 0.5C51.5 0.8333 52 1.1667 52.5 1.5C38.2281 21.6955 38.0615 42.029 52 62.5C56.205 67.887 61.372 71.887 67.5 74.5Z" fill="#2076BC"/>
<path fill-rule="evenodd" clip-rule="evenodd" d="M220.5 31.5C220.5 33.5 220.5 35.5 220.5 37.5C216.833 37.5 213.167 37.5 209.5 37.5C208.506 46.986 208.173 56.652 208.5 66.5C206.5 66.5 204.5 66.5 202.5 66.5C202.5 56.833 202.5 47.167 202.5 37.5C198.833 37.5 195.167 37.5 191.5 37.5C191.5 35.5 191.5 33.5 191.5 31.5C201.167 31.5 210.833 31.5 220.5 31.5Z" fill="#1E6FB8"/>
<path fill-rule="evenodd" clip-rule="evenodd" d="M90.5 31.5C99.5 31.5 108.5 31.5 117.5 31.5C117.5 32.833 117.5 34.167 117.5 35.5C111.833 43.5 106.167 51.5 100.5 59.5C99.957 59.56 99.624 59.893 99.5 60.5C105.463 61.496 111.463 61.829 117.5 61.5C117.5 63.167 117.5 64.833 117.5 66.5C108.5 66.5 99.5 66.5 90.5 66.5C90.5 65.167 90.5 63.833 90.5 62.5C96.157 54.529 101.824 46.529 107.5 38.5C101.872 37.505 96.206 37.171 90.5 37.5C90.5 35.5 90.5 33.5 90.5 31.5Z" fill="#206FB7"/>
<path fill-rule="evenodd" clip-rule="evenodd" d="M25.5 12.5C26.0431 12.56 26.3764 12.8933 26.5 13.5C21.2289 45.343 33.5622 67.343 63.5 79.5C69.415 80.792 75.415 81.626 81.5 82C54.582 87.627 33.7485 78.793 19 55.5C14.4357 46.012 12.4357 36.012 13 25.5C16.6695 20.6643 20.8362 16.331 25.5 12.5Z" fill="#2376BC"/>
<path fill-rule="evenodd" clip-rule="evenodd" d="M148.5 31.5C152.514 31.334 156.514 31.501 160.5 32C163.576 32.911 165.909 34.744 167.5 37.5C165.07 41.211 162.404 41.378 159.5 38C156.167 37.333 152.833 37.333 149.5 38C146.512 41.539 147.179 44.205 151.5 46C157.647 45.995 163.147 47.828 168 51.5C170.955 58.634 169.122 64.134 162.5 68C153.98 71.083 146.48 69.583 140 63.5C139.197 60.775 140.197 59.109 143 58.5C146.415 61.54 150.415 63.206 155 63.5C162.061 63.137 163.895 59.97 160.5 54C155.807 53.092 151.14 52.092 146.5 51C140.975 48.081 139.142 43.581 141 37.5C143.134 34.847 145.634 32.847 148.5 31.5Z" fill="#2672B9"/>
<path fill-rule="evenodd" clip-rule="evenodd" d="M4.50002 38.5C11.4302 68.087 30.0969 84.754 60.5 88.5C64.517 88.14 68.517 87.64 72.5 87C78.276 85.293 83.943 83.626 89.5 82C74.909 93.856 58.242 98.19 39.5 95C21.8753 90.282 9.04202 79.782 1.00003 63.5C0.333325 59.5 0.333325 55.5 1.00003 51.5C2.01793 47.093 3.18462 42.759 4.50002 38.5Z" fill="#2176BC"/>
</svg>
