<svg width="905" height="280" viewBox="0 0 905 280" fill="none" xmlns="http://www.w3.org/2000/svg">
<path d="M376.625 83.25C383.083 83.25 389.875 83.4792 397 83.9375C404.125 84.3958 411.625 85.2917 419.5 86.625V102.5C416.708 101.708 413.521 100.958 409.938 100.25C406.854 99.6667 403.146 99.1042 398.812 98.5625C394.479 98.0208 389.583 97.6667 384.125 97.5V178.375H369.25V97.5C363.792 97.6667 358.896 98.0208 354.562 98.5625C350.229 99.1042 346.521 99.6667 343.438 100.25C339.854 100.958 336.667 101.708 333.875 102.5V86.625C341.667 85.2917 349.167 84.3958 356.375 83.9375C363.583 83.4792 370.333 83.25 376.625 83.25Z" fill="white"/>
<path d="M279.75 83C285.417 83 290.896 83.3542 296.188 84.0625C301.521 84.7292 306.292 85.8958 310.5 87.5625C314.75 89.1875 318.229 91.3958 320.938 94.1875C323.688 96.9792 325.292 100.458 325.75 104.625L309.5 109.125C309.5 106.625 308.646 104.583 306.938 103C305.271 101.375 303.042 100.104 300.25 99.1875C297.5 98.2292 294.333 97.5625 290.75 97.1875C287.208 96.8125 283.542 96.625 279.75 96.625C276.042 96.625 272.396 96.7917 268.812 97.125C265.229 97.4583 262 98.0833 259.125 99C256.292 99.9167 254 101.188 252.25 102.812C250.5 104.438 249.625 106.542 249.625 109.125V124H325.75V156.375C325.75 159.167 325.125 161.667 323.875 163.875C322.667 166.042 320.979 167.938 318.812 169.562C316.688 171.146 314.146 172.5 311.188 173.625C308.271 174.708 305.104 175.583 301.688 176.25C298.312 176.917 294.75 177.396 291 177.688C287.25 177.979 283.5 178.125 279.75 178.125C275.917 178.125 272.146 177.979 268.438 177.688C264.729 177.396 261.208 176.917 257.875 176.25C254.542 175.583 251.438 174.708 248.562 173.625C245.729 172.5 243.229 171.146 241.062 169.562C238.896 167.938 237.146 166.042 235.812 163.875C234.479 161.708 233.667 159.208 233.375 156.375L249.625 151.875C249.625 154.458 250.5 156.562 252.25 158.188C254 159.812 256.292 161.083 259.125 162C262 162.917 265.229 163.542 268.812 163.875C272.396 164.208 276.042 164.375 279.75 164.375C283.542 164.375 287.208 164.208 290.75 163.875C294.333 163.5 297.5 162.854 300.25 161.938C303.042 160.979 305.271 159.688 306.938 158.062C308.646 156.438 309.5 154.375 309.5 151.875V136.625H233.375V104.625C233.375 101.833 233.979 99.375 235.188 97.25C236.438 95.0833 238.125 93.2083 240.25 91.625C242.417 90 244.979 88.6458 247.938 87.5625C250.896 86.4375 254.083 85.5417 257.5 84.875C260.958 84.2083 264.562 83.7292 268.312 83.4375C272.104 83.1458 275.917 83 279.75 83Z" fill="white"/>
<path fill-rule="evenodd" clip-rule="evenodd" d="M226.623 172.294C204.15 178.54 176.941 180.793 140.552 175.43L134.122 174.483L136.017 161.622L142.448 162.569C177.309 167.707 202.662 165.46 223.142 159.769C243.708 154.053 259.72 144.782 276.148 135.144C276.46 134.961 276.771 134.778 277.083 134.595C293.114 125.188 309.709 115.45 330.645 109.585C352.116 103.57 377.791 101.705 412.1 107.594L418.506 108.693L416.307 121.506L409.9 120.406C377.209 114.795 353.509 116.68 334.152 122.103C314.849 127.51 299.506 136.512 283.188 146.085L282.727 146.356C266.343 155.968 249.01 166.072 226.623 172.294Z" fill="#FFAD01"/>
<path d="M175.625 83.125C182.042 83.125 188.833 83.3542 196 83.8125C203.208 84.2708 210.75 85.1667 218.625 86.5V102.375C216.583 105.5 214.167 108.792 211.375 112.25C208.583 115.667 205.542 119.167 202.25 122.75C198.958 126.292 195.458 129.875 191.75 133.5C188.042 137.125 184.208 140.688 180.25 144.188C176.292 147.646 172.271 151 168.188 154.25C164.146 157.458 160.125 160.458 156.125 163.25C159.75 163.625 163.833 163.875 168.375 164C169.583 164.083 170.792 164.125 172 164.125C173.25 164.125 174.5 164.125 175.75 164.125C177 164.125 178.229 164.125 179.438 164.125C180.646 164.125 181.917 164.083 183.25 164C187.833 163.875 191.958 163.625 195.625 163.25C199.333 162.833 202.625 162.375 205.5 161.875C205.875 159.792 206.208 157.521 206.5 155.062C206.792 152.562 207.042 149.833 207.25 146.875H221.5C221.292 151.333 220.958 155.896 220.5 160.562C220.083 165.188 219.458 169.958 218.625 174.875C210.75 176.208 203.229 177.104 196.062 177.562C188.896 178.021 182.208 178.25 176 178.25C169.542 178.25 162.708 178.021 155.5 177.562C148.292 177.104 140.792 176.208 133 174.875V159C139.042 155.542 145.125 151.583 151.25 147.125C157.417 142.625 163.438 137.792 169.312 132.625C175.188 127.458 180.854 122.021 186.312 116.312C191.812 110.562 196.917 104.708 201.625 98.75C200.333 98.5833 198.938 98.4167 197.438 98.25C195.979 98.0833 194.25 97.9375 192.25 97.8125C190.25 97.6458 187.917 97.5208 185.25 97.4375C182.625 97.3125 179.542 97.25 176 97.25C171.875 97.25 168.312 97.3125 165.312 97.4375C162.312 97.5625 159.667 97.7292 157.375 97.9375C155.083 98.1458 153.021 98.3958 151.188 98.6875C149.396 98.9375 147.625 99.2083 145.875 99.5C145.542 101.583 145.229 103.896 144.938 106.438C144.688 108.938 144.458 111.625 144.25 114.5H130C130.25 110.083 130.583 105.562 131 100.938C131.458 96.2708 132.125 91.4583 133 86.5C140.792 85.1667 148.271 84.2708 155.438 83.8125C162.604 83.3542 169.333 83.125 175.625 83.125Z" fill="white"/>
<path fill-rule="evenodd" clip-rule="evenodd" d="M445 183L445 90L450 90L450 183L445 183Z" fill="white"/>
<path d="M661.401 176V121.455H669.498V129.977H670.208C671.344 127.065 673.179 124.804 675.712 123.195C678.245 121.561 681.287 120.744 684.839 120.744C688.437 120.744 691.432 121.561 693.823 123.195C696.238 124.804 698.12 127.065 699.469 129.977H700.037C701.434 127.16 703.529 124.923 706.323 123.266C709.117 121.585 712.466 120.744 716.373 120.744C721.25 120.744 725.239 122.271 728.34 125.325C731.441 128.356 732.992 133.079 732.992 139.494V176H724.611V139.494C724.611 135.47 723.51 132.593 721.309 130.865C719.107 129.137 716.515 128.273 713.532 128.273C709.697 128.273 706.725 129.433 704.618 131.753C702.511 134.049 701.458 136.961 701.458 140.489V176H692.935V138.642C692.935 135.541 691.929 133.043 689.917 131.149C687.904 129.232 685.312 128.273 682.14 128.273C679.962 128.273 677.926 128.853 676.032 130.013C674.162 131.173 672.646 132.783 671.486 134.842C670.35 136.878 669.782 139.234 669.782 141.909V176H661.401Z" fill="white"/>
<path d="M623.892 177.136C618.968 177.136 614.647 175.964 610.931 173.621C607.237 171.277 604.349 167.998 602.266 163.784C600.206 159.57 599.176 154.646 599.176 149.011C599.176 143.33 600.206 138.37 602.266 134.132C604.349 129.894 607.237 126.604 610.931 124.26C614.647 121.916 618.968 120.744 623.892 120.744C628.816 120.744 633.125 121.916 636.818 124.26C640.535 126.604 643.423 129.894 645.483 134.132C647.566 138.37 648.608 143.33 648.608 149.011C648.608 154.646 647.566 159.57 645.483 163.784C643.423 167.998 640.535 171.277 636.818 173.621C633.125 175.964 628.816 177.136 623.892 177.136ZM623.892 169.608C627.633 169.608 630.71 168.649 633.125 166.732C635.54 164.814 637.327 162.293 638.487 159.168C639.647 156.043 640.227 152.657 640.227 149.011C640.227 145.366 639.647 141.968 638.487 138.82C637.327 135.671 635.54 133.126 633.125 131.185C630.71 129.243 627.633 128.273 623.892 128.273C620.152 128.273 617.074 129.243 614.659 131.185C612.244 133.126 610.457 135.671 609.297 138.82C608.137 141.968 607.557 145.366 607.557 149.011C607.557 152.657 608.137 156.043 609.297 159.168C610.457 162.293 612.244 164.814 614.659 166.732C617.074 168.649 620.152 169.608 623.892 169.608Z" fill="white"/>
<path d="M568.033 177.136C562.919 177.136 558.516 175.929 554.823 173.514C551.129 171.099 548.288 167.773 546.3 163.536C544.311 159.298 543.317 154.456 543.317 149.011C543.317 143.472 544.335 138.583 546.371 134.345C548.431 130.084 551.295 126.758 554.965 124.366C558.658 121.952 562.967 120.744 567.891 120.744C571.726 120.744 575.182 121.455 578.26 122.875C581.338 124.295 583.859 126.284 585.824 128.841C587.789 131.398 589.008 134.381 589.482 137.79H581.101C580.462 135.304 579.041 133.102 576.84 131.185C574.662 129.243 571.726 128.273 568.033 128.273C564.766 128.273 561.901 129.125 559.439 130.83C557.001 132.51 555.095 134.89 553.722 137.967C552.372 141.021 551.698 144.608 551.698 148.727C551.698 152.941 552.36 156.611 553.686 159.736C555.036 162.861 556.93 165.287 559.368 167.016C561.83 168.744 564.718 169.608 568.033 169.608C570.211 169.608 572.188 169.229 573.963 168.472C575.739 167.714 577.242 166.625 578.473 165.205C579.704 163.784 580.58 162.08 581.101 160.091H589.482C589.008 163.311 587.836 166.211 585.966 168.791C584.119 171.348 581.669 173.384 578.615 174.899C575.585 176.391 572.057 177.136 568.033 177.136Z" fill="white"/>
<path d="M510.54 177.136C505.284 177.136 500.751 175.976 496.939 173.656C493.151 171.313 490.227 168.045 488.168 163.855C486.132 159.641 485.114 154.741 485.114 149.153C485.114 143.566 486.132 138.642 488.168 134.381C490.227 130.096 493.092 126.758 496.761 124.366C500.455 121.952 504.763 120.744 509.688 120.744C512.529 120.744 515.334 121.218 518.104 122.165C520.874 123.112 523.395 124.651 525.668 126.781C527.94 128.888 529.752 131.682 531.101 135.162C532.45 138.642 533.125 142.927 533.125 148.017V151.568H491.08V144.324H524.602C524.602 141.246 523.987 138.5 522.756 136.085C521.548 133.67 519.82 131.765 517.571 130.368C515.346 128.971 512.718 128.273 509.688 128.273C506.35 128.273 503.461 129.101 501.023 130.759C498.608 132.392 496.75 134.523 495.448 137.151C494.145 139.778 493.494 142.596 493.494 145.602V150.432C493.494 154.551 494.205 158.043 495.625 160.908C497.069 163.749 499.07 165.915 501.627 167.406C504.183 168.874 507.154 169.608 510.54 169.608C512.742 169.608 514.73 169.3 516.506 168.685C518.305 168.045 519.856 167.098 521.158 165.844C522.46 164.565 523.466 162.979 524.176 161.085L532.273 163.358C531.421 166.104 529.988 168.519 527.976 170.602C525.964 172.662 523.478 174.272 520.519 175.432C517.559 176.568 514.233 177.136 510.54 177.136Z" fill="white"/>
<path d="M764 167C764 171.971 759.971 176 755 176C750.029 176 746 171.971 746 167C746 162.029 750.029 158 755 158C759.971 158 764 162.029 764 167Z" fill="#FFAD01"/>
<path d="M262 124H325V137H262V124Z" fill="white"/>
</svg>
